<mxfile host="65bd71144e">
    <diagram id="jrbtZY8rF9soC5BZV6fk" name="API Logic">
        <mxGraphModel dx="2274" dy="602" grid="1" gridSize="10" guides="1" tooltips="1" connect="1" arrows="1" fold="1" page="0" pageScale="1" pageWidth="827" pageHeight="1169" math="0" shadow="0">
            <root>
                <mxCell id="0"/>
                <mxCell id="1" parent="0"/>
                <mxCell id="4" value="" style="edgeStyle=none;html=1;" edge="1" parent="1" source="2" target="3">
                    <mxGeometry relative="1" as="geometry"/>
                </mxCell>
                <mxCell id="2" value="USER ACTIONS" style="whiteSpace=wrap;html=1;" vertex="1" parent="1">
                    <mxGeometry x="-820" y="120" width="120" height="60" as="geometry"/>
                </mxCell>
                <mxCell id="6" value="" style="edgeStyle=none;html=1;shape=link;" edge="1" parent="1" source="3" target="5">
                    <mxGeometry relative="1" as="geometry"/>
                </mxCell>
                <mxCell id="3" value="CREATE" style="whiteSpace=wrap;html=1;" vertex="1" parent="1">
                    <mxGeometry x="-820" y="200" width="120" height="40" as="geometry"/>
                </mxCell>
                <mxCell id="8" value="" style="edgeStyle=none;html=1;shape=link;" edge="1" parent="1" source="5" target="7">
                    <mxGeometry relative="1" as="geometry"/>
                </mxCell>
                <mxCell id="5" value="RETREIVE" style="whiteSpace=wrap;html=1;" vertex="1" parent="1">
                    <mxGeometry x="-820" y="260" width="120" height="40" as="geometry"/>
                </mxCell>
                <mxCell id="10" value="" style="edgeStyle=none;html=1;shape=link;" edge="1" parent="1" source="7" target="9">
                    <mxGeometry relative="1" as="geometry"/>
                </mxCell>
                <mxCell id="7" value="UPDATE" style="whiteSpace=wrap;html=1;" vertex="1" parent="1">
                    <mxGeometry x="-820" y="320" width="120" height="40" as="geometry"/>
                </mxCell>
                <mxCell id="9" value="DELETE" style="whiteSpace=wrap;html=1;" vertex="1" parent="1">
                    <mxGeometry x="-820" y="380" width="120" height="40" as="geometry"/>
                </mxCell>
                <mxCell id="20" value="" style="edgeStyle=none;html=1;entryX=0.5;entryY=0;entryDx=0;entryDy=0;" edge="1" parent="1" source="11" target="13">
                    <mxGeometry relative="1" as="geometry"/>
                </mxCell>
                <mxCell id="11" value="dataAPI" style="whiteSpace=wrap;html=1;" vertex="1" parent="1">
                    <mxGeometry x="-480" y="120" width="120" height="60" as="geometry"/>
                </mxCell>
                <mxCell id="12" value="" style="edgeStyle=none;html=1;shape=link;" edge="1" parent="1" source="13" target="15">
                    <mxGeometry relative="1" as="geometry"/>
                </mxCell>
                <mxCell id="13" value="CREATE" style="whiteSpace=wrap;html=1;" vertex="1" parent="1">
                    <mxGeometry x="-480" y="200" width="120" height="40" as="geometry"/>
                </mxCell>
                <mxCell id="14" value="" style="edgeStyle=none;html=1;shape=link;" edge="1" parent="1" source="15" target="17">
                    <mxGeometry relative="1" as="geometry"/>
                </mxCell>
                <mxCell id="15" value="RETREIVE" style="whiteSpace=wrap;html=1;" vertex="1" parent="1">
                    <mxGeometry x="-480" y="260" width="120" height="40" as="geometry"/>
                </mxCell>
                <mxCell id="16" value="" style="edgeStyle=none;html=1;shape=link;" edge="1" parent="1" source="17" target="18">
                    <mxGeometry relative="1" as="geometry"/>
                </mxCell>
                <mxCell id="17" value="UPDATE" style="whiteSpace=wrap;html=1;" vertex="1" parent="1">
                    <mxGeometry x="-480" y="320" width="120" height="40" as="geometry"/>
                </mxCell>
                <mxCell id="18" value="DELETE" style="whiteSpace=wrap;html=1;" vertex="1" parent="1">
                    <mxGeometry x="-480" y="380" width="120" height="40" as="geometry"/>
                </mxCell>
                <mxCell id="21" value="JOURNAL&lt;br&gt;ENTRIES" style="ellipse;whiteSpace=wrap;html=1;" vertex="1" parent="1">
                    <mxGeometry x="-650" y="250" width="120" height="60" as="geometry"/>
                </mxCell>
                <mxCell id="23" value="EXCEL&lt;br&gt;DATABASE" style="ellipse;whiteSpace=wrap;html=1;" vertex="1" parent="1">
                    <mxGeometry x="-290" y="251" width="120" height="60" as="geometry"/>
                </mxCell>
            </root>
        </mxGraphModel>
    </diagram>
</mxfile>